# xmcd
#
# Track frame offsets:
#	150
#	14402
#	34014
#	44911
#	58969
#	76984
#	90612
#	106200
#	127410
#	142136
#
# Disc length: 2097 seconds
#
# Revision: 1
# Processed by: cddbd v1.5.2PL0 Copyright (c) Steve Scherf et al.
# Submitted via: EZCDAudioConverter 7.0.6.1
#
DISCID=94082f0a
DTITLE=Praise 4: In His Time
DYEAR=1979
DGENRE=
TTITLE0=Maranatha Singers - I Want To Praise You Lord
TTITLE1=Maranatha Singers (Jack Searle) - In His Time
TTITLE2=Maranatha Singers - Micah
TTITLE3=Maranatha Singers (Bruce Herring) - I Will Serve You (Thee)
TTITLE4=Maranatha Singers (Terry Clark) - Psalm 5
TTITLE5=Maranatha Singers (Tom Coomes) - The Sweetest Name Of All
TTITLE6=Maranatha Singers (Tricia Murray) - The Worship Song (Lord, You're Wor
TTITLE6=thy)
TTITLE7=Maranatha Singers (Kelly Willard and Michelle Pillar) - Jesus What A Won
TTITLE7=der You Are (Jesus, How Lovely You Are)
TTITLE8=Maranatha Singers (Jack Searle) - Isn't He
TTITLE9=Maranatha Singers - I Love You Lord
EXTD=
EXTT0=
EXTT1=
EXTT2=
EXTT3=
EXTT4=
EXTT5=
EXTT6=
EXTT7=
EXTT8=
EXTT9=
PLAYORDER=
